<svg width="601" height="96" viewBox="0 0 601 96" fill="none" xmlns="http://www.w3.org/2000/svg">
<line x1="0.998541" y1="94" x2="600.998" y2="93.5624" stroke="#F25C5C" stroke-width="4" stroke-dasharray="8 16 24 32"/>
<path d="M156.415 11.0909V46H149.034V11.0909H156.415ZM162.487 46V11.0909H185.601V17.1761H169.868V25.4943H184.067V31.5795H169.868V46H162.487ZM190.565 46V11.0909H204.338C206.986 11.0909 209.241 11.5966 211.105 12.608C212.969 13.608 214.389 15 215.366 16.7841C216.355 18.5568 216.849 20.6023 216.849 22.9205C216.849 25.2386 216.349 27.2841 215.349 29.0568C214.349 30.8295 212.901 32.2102 211.003 33.1989C209.116 34.1875 206.832 34.6818 204.151 34.6818H195.372V28.767H202.957C204.378 28.767 205.548 28.5227 206.469 28.0341C207.401 27.5341 208.094 26.8466 208.548 25.9716C209.014 25.0852 209.247 24.0682 209.247 22.9205C209.247 21.7614 209.014 20.75 208.548 19.8864C208.094 19.0114 207.401 18.3352 206.469 17.858C205.537 17.3693 204.355 17.125 202.923 17.125H197.946V46H190.565ZM221.643 46V11.0909H235.416C238.053 11.0909 240.303 11.5625 242.166 12.5057C244.041 13.4375 245.467 14.7614 246.445 16.4773C247.433 18.1818 247.928 20.1875 247.928 22.4943C247.928 24.8125 247.428 26.8068 246.428 28.4773C245.428 30.1364 243.979 31.4091 242.081 32.2955C240.195 33.1818 237.911 33.625 235.229 33.625H226.007V27.6932H234.036C235.445 27.6932 236.615 27.5 237.547 27.1136C238.479 26.7273 239.172 26.1477 239.626 25.375C240.092 24.6023 240.325 23.642 240.325 22.4943C240.325 21.3352 240.092 20.358 239.626 19.5625C239.172 18.767 238.473 18.1648 237.53 17.7557C236.598 17.3352 235.422 17.125 234.001 17.125H229.024V46H221.643ZM240.496 30.1136L249.172 46H241.024L232.536 30.1136H240.496Z" fill="white"/>
<path d="M253.143 46V11.0909H260.524V39.9148H275.49V46H253.143ZM301.889 46.5455L284.366 29.0227C282.969 27.625 282.037 26 281.571 24.1477C281.116 22.2955 281.122 20.4545 281.588 18.625C282.054 16.7841 282.98 15.1818 284.366 13.8182C285.787 12.4205 287.406 11.4943 289.224 11.0398C291.054 10.5739 292.878 10.5739 294.696 11.0398C296.526 11.5057 298.151 12.4318 299.571 13.8182L301.889 16.0682L304.207 13.8182C305.639 12.4318 307.264 11.5057 309.082 11.0398C310.901 10.5739 312.719 10.5739 314.537 11.0398C316.366 11.4943 317.991 12.4205 319.412 13.8182C320.798 15.1818 321.724 16.7841 322.19 18.625C322.656 20.4545 322.656 22.2955 322.19 24.1477C321.736 26 320.81 27.625 319.412 29.0227L301.889 46.5455ZM335.763 11.0909L344.2 37.6136H344.524L352.979 11.0909H361.161L349.126 46H339.615L327.564 11.0909H335.763ZM365.362 46V11.0909H388.885V17.1761H372.743V25.4943H387.675V31.5795H372.743V39.9148H388.953V46H365.362ZM394.753 46V11.0909H408.526C411.162 11.0909 413.412 11.5625 415.276 12.5057C417.151 13.4375 418.577 14.7614 419.554 16.4773C420.543 18.1818 421.037 20.1875 421.037 22.4943C421.037 24.8125 420.537 26.8068 419.537 28.4773C418.537 30.1364 417.088 31.4091 415.19 32.2955C413.304 33.1818 411.02 33.625 408.338 33.625H399.116V27.6932H407.145C408.554 27.6932 409.724 27.5 410.656 27.1136C411.588 26.7273 412.281 26.1477 412.736 25.375C413.202 24.6023 413.435 23.642 413.435 22.4943C413.435 21.3352 413.202 20.358 412.736 19.5625C412.281 18.767 411.582 18.1648 410.639 17.7557C409.707 17.3352 408.531 17.125 407.111 17.125H402.134V46H394.753ZM413.605 30.1136L422.281 46H414.134L405.645 30.1136H413.605ZM445.19 21.1307C445.054 19.7557 444.469 18.6875 443.435 17.9261C442.401 17.1648 440.997 16.7841 439.224 16.7841C438.02 16.7841 437.003 16.9545 436.173 17.2955C435.344 17.625 434.707 18.0852 434.264 18.6761C433.832 19.267 433.616 19.9375 433.616 20.6875C433.594 21.3125 433.724 21.858 434.009 22.3239C434.304 22.7898 434.707 23.1932 435.219 23.5341C435.73 23.8636 436.321 24.1534 436.991 24.4034C437.662 24.642 438.378 24.8466 439.139 25.017L442.276 25.767C443.798 26.108 445.196 26.5625 446.469 27.1307C447.741 27.6989 448.844 28.3977 449.776 29.2273C450.707 30.0568 451.429 31.0341 451.94 32.1591C452.463 33.2841 452.73 34.5739 452.741 36.0284C452.73 38.1648 452.185 40.017 451.105 41.5852C450.037 43.142 448.491 44.3523 446.469 45.2159C444.457 46.0682 442.031 46.4943 439.19 46.4943C436.372 46.4943 433.918 46.0625 431.827 45.1989C429.747 44.3352 428.122 43.0568 426.952 41.3636C425.793 39.6591 425.185 37.5511 425.128 35.0398H432.27C432.349 36.2102 432.685 37.1875 433.276 37.9716C433.878 38.7443 434.679 39.3295 435.679 39.7273C436.69 40.1136 437.832 40.3068 439.105 40.3068C440.355 40.3068 441.44 40.125 442.361 39.7614C443.293 39.3977 444.014 38.892 444.526 38.2443C445.037 37.5966 445.293 36.8523 445.293 36.0114C445.293 35.2273 445.06 34.5682 444.594 34.0341C444.139 33.5 443.469 33.0455 442.582 32.6705C441.707 32.2955 440.634 31.9545 439.361 31.6477L435.56 30.6932C432.616 29.9773 430.293 28.858 428.588 27.3352C426.884 25.8125 426.037 23.7614 426.048 21.1818C426.037 19.0682 426.599 17.2216 427.736 15.642C428.884 14.0625 430.457 12.8295 432.457 11.9432C434.457 11.0568 436.73 10.6136 439.276 10.6136C441.866 10.6136 444.128 11.0568 446.06 11.9432C448.003 12.8295 449.514 14.0625 450.594 15.642C451.673 17.2216 452.23 19.0511 452.264 21.1307H445.19Z" fill="#F25C5C"/>
</svg>
