<svg width="304" height="37" viewBox="0 0 304 37" fill="none" xmlns="http://www.w3.org/2000/svg">
<path d="M7.41477 1.09091V36H0.0340909V1.09091H7.41477ZM13.4872 36V1.09091H36.6009V7.17614H20.8679V15.4943H35.0668V21.5795H20.8679V36H13.4872ZM41.5653 36V1.09091H55.3381C57.9858 1.09091 60.2415 1.59659 62.1051 2.60795C63.9688 3.60795 65.3892 5 66.3665 6.78409C67.3551 8.55682 67.8494 10.6023 67.8494 12.9205C67.8494 15.2386 67.3494 17.2841 66.3494 19.0568C65.3494 20.8295 63.9006 22.2102 62.0028 23.1989C60.1165 24.1875 57.8324 24.6818 55.1506 24.6818H46.3722V18.767H53.9574C55.3778 18.767 56.5483 18.5227 57.4688 18.0341C58.4006 17.5341 59.0938 16.8466 59.5483 15.9716C60.0142 15.0852 60.2472 14.0682 60.2472 12.9205C60.2472 11.7614 60.0142 10.75 59.5483 9.88636C59.0938 9.01136 58.4006 8.33523 57.4688 7.85795C56.5369 7.36932 55.3551 7.125 53.9233 7.125H48.946V36H41.5653ZM72.6435 36V1.09091H86.4162C89.0526 1.09091 91.3026 1.5625 93.1662 2.50568C95.0412 3.4375 96.4673 4.76136 97.4446 6.47727C98.4332 8.18182 98.9276 10.1875 98.9276 12.4943C98.9276 14.8125 98.4276 16.8068 97.4276 18.4773C96.4276 20.1364 94.9787 21.4091 93.081 22.2955C91.1946 23.1818 88.9105 23.625 86.2287 23.625H77.0071V17.6932H85.0355C86.4446 17.6932 87.6151 17.5 88.5469 17.1136C89.4787 16.7273 90.1719 16.1477 90.6264 15.375C91.0923 14.6023 91.3253 13.642 91.3253 12.4943C91.3253 11.3352 91.0923 10.358 90.6264 9.5625C90.1719 8.76704 89.473 8.16477 88.5298 7.75568C87.598 7.33523 86.4219 7.125 85.0014 7.125H80.0241V36H72.6435ZM91.4957 20.1136L100.172 36H92.0241L83.5355 20.1136H91.4957Z" fill="#F22E8A"/>
<path d="M104.143 36V1.09091H111.524V29.9148H126.49V36H104.143ZM152.889 36.5455L135.366 19.0227C133.969 17.625 133.037 16 132.571 14.1477C132.116 12.2955 132.122 10.4545 132.588 8.625C133.054 6.78409 133.98 5.18182 135.366 3.81818C136.787 2.42045 138.406 1.49432 140.224 1.03977C142.054 0.573863 143.878 0.573863 145.696 1.03977C147.526 1.50568 149.151 2.43182 150.571 3.81818L152.889 6.06818L155.207 3.81818C156.639 2.43182 158.264 1.50568 160.082 1.03977C161.901 0.573863 163.719 0.573863 165.537 1.03977C167.366 1.49432 168.991 2.42045 170.412 3.81818C171.798 5.18182 172.724 6.78409 173.19 8.625C173.656 10.4545 173.656 12.2955 173.19 14.1477C172.736 16 171.81 17.625 170.412 19.0227L152.889 36.5455ZM186.763 1.09091L195.2 27.6136H195.524L203.979 1.09091H212.161L200.126 36H190.615L178.564 1.09091H186.763ZM216.362 36V1.09091H239.885V7.17614H223.743V15.4943H238.675V21.5795H223.743V29.9148H239.953V36H216.362ZM245.753 36V1.09091H259.526C262.162 1.09091 264.412 1.5625 266.276 2.50568C268.151 3.4375 269.577 4.76136 270.554 6.47727C271.543 8.18182 272.037 10.1875 272.037 12.4943C272.037 14.8125 271.537 16.8068 270.537 18.4773C269.537 20.1364 268.088 21.4091 266.19 22.2955C264.304 23.1818 262.02 23.625 259.338 23.625H250.116V17.6932H258.145C259.554 17.6932 260.724 17.5 261.656 17.1136C262.588 16.7273 263.281 16.1477 263.736 15.375C264.202 14.6023 264.435 13.642 264.435 12.4943C264.435 11.3352 264.202 10.358 263.736 9.5625C263.281 8.76704 262.582 8.16477 261.639 7.75568C260.707 7.33523 259.531 7.125 258.111 7.125H253.134V36H245.753ZM264.605 20.1136L273.281 36H265.134L256.645 20.1136H264.605ZM296.19 11.1307C296.054 9.75568 295.469 8.6875 294.435 7.92614C293.401 7.16477 291.997 6.78409 290.224 6.78409C289.02 6.78409 288.003 6.95454 287.173 7.29545C286.344 7.625 285.707 8.08523 285.264 8.67614C284.832 9.26705 284.616 9.9375 284.616 10.6875C284.594 11.3125 284.724 11.858 285.009 12.3239C285.304 12.7898 285.707 13.1932 286.219 13.5341C286.73 13.8636 287.321 14.1534 287.991 14.4034C288.662 14.642 289.378 14.8466 290.139 15.017L293.276 15.767C294.798 16.108 296.196 16.5625 297.469 17.1307C298.741 17.6989 299.844 18.3977 300.776 19.2273C301.707 20.0568 302.429 21.0341 302.94 22.1591C303.463 23.2841 303.73 24.5739 303.741 26.0284C303.73 28.1648 303.185 30.017 302.105 31.5852C301.037 33.142 299.491 34.3523 297.469 35.2159C295.457 36.0682 293.031 36.4943 290.19 36.4943C287.372 36.4943 284.918 36.0625 282.827 35.1989C280.747 34.3352 279.122 33.0568 277.952 31.3636C276.793 29.6591 276.185 27.5511 276.128 25.0398H283.27C283.349 26.2102 283.685 27.1875 284.276 27.9716C284.878 28.7443 285.679 29.3295 286.679 29.7273C287.69 30.1136 288.832 30.3068 290.105 30.3068C291.355 30.3068 292.44 30.125 293.361 29.7614C294.293 29.3977 295.014 28.892 295.526 28.2443C296.037 27.5966 296.293 26.8523 296.293 26.0114C296.293 25.2273 296.06 24.5682 295.594 24.0341C295.139 23.5 294.469 23.0455 293.582 22.6705C292.707 22.2955 291.634 21.9545 290.361 21.6477L286.56 20.6932C283.616 19.9773 281.293 18.858 279.588 17.3352C277.884 15.8125 277.037 13.7614 277.048 11.1818C277.037 9.06818 277.599 7.22159 278.736 5.64205C279.884 4.0625 281.457 2.82955 283.457 1.94318C285.457 1.05682 287.73 0.613635 290.276 0.613635C292.866 0.613635 295.128 1.05682 297.06 1.94318C299.003 2.82955 300.514 4.0625 301.594 5.64205C302.673 7.22159 303.23 9.05114 303.264 11.1307H296.19Z" fill="#F25C5C"/>
</svg>
