<svg width="229" height="28" viewBox="0 0 229 28" fill="none" xmlns="http://www.w3.org/2000/svg">
<path d="M5.81108 0.818181V27H0.275568V0.818181H5.81108ZM10.3654 27V0.818181H27.7006V5.3821H15.9009V11.6207H26.5501V16.1847H15.9009V27H10.3654ZM31.424 27V0.818181H41.7536C43.7393 0.818181 45.4311 1.19744 46.8288 1.95597C48.2266 2.70597 49.2919 3.75 50.0249 5.08807C50.7663 6.41761 51.1371 7.9517 51.1371 9.69034C51.1371 11.429 50.7621 12.9631 50.0121 14.2926C49.2621 15.6222 48.1754 16.6577 46.7521 17.3991C45.3374 18.1406 43.6243 18.5114 41.6129 18.5114H35.0291V14.0753H40.718C41.7834 14.0753 42.6612 13.892 43.3516 13.5256C44.0504 13.1506 44.5703 12.6349 44.9112 11.9787C45.2607 11.3139 45.4354 10.5511 45.4354 9.69034C45.4354 8.82102 45.2607 8.0625 44.9112 7.41477C44.5703 6.75852 44.0504 6.25142 43.3516 5.89347C42.6527 5.52699 41.7663 5.34375 40.6925 5.34375H36.9595V27H31.424ZM54.7326 27V0.818181H65.0621C67.0394 0.818181 68.7269 1.17187 70.1246 1.87926C71.5309 2.57812 72.6005 3.57102 73.3335 4.85795C74.0749 6.13636 74.4457 7.64062 74.4457 9.37074C74.4457 11.1094 74.0707 12.6051 73.3207 13.858C72.5707 15.1023 71.484 16.0568 70.0607 16.7216C68.646 17.3864 66.9329 17.7188 64.9215 17.7188H58.0053V13.2699H64.0266C65.0835 13.2699 65.9613 13.125 66.6602 12.8352C67.359 12.5455 67.8789 12.1108 68.2198 11.5312C68.5692 10.9517 68.744 10.2315 68.744 9.37074C68.744 8.50142 68.5692 7.76847 68.2198 7.17188C67.8789 6.57528 67.3548 6.12358 66.6474 5.81676C65.9485 5.50142 65.0664 5.34375 64.0011 5.34375H60.2681V27H54.7326ZM68.8718 15.0852L75.3789 27H69.2681L62.9016 15.0852H68.8718Z" fill="white"/>
<path d="M78.3576 27V0.818181H83.8931V22.4361H95.1175V27H78.3576ZM114.917 27.4091L101.775 14.267C100.727 13.2188 100.028 12 99.6783 10.6108C99.3374 9.22159 99.3416 7.84091 99.6911 6.46875C100.04 5.08807 100.735 3.88636 101.775 2.86364C102.84 1.81534 104.055 1.12074 105.418 0.77983C106.79 0.430397 108.158 0.430397 109.522 0.77983C110.894 1.12926 112.113 1.82386 113.178 2.86364L114.917 4.55114L116.656 2.86364C117.729 1.82386 118.948 1.12926 120.312 0.77983C121.675 0.430397 123.039 0.430397 124.403 0.77983C125.775 1.12074 126.994 1.81534 128.059 2.86364C129.099 3.88636 129.793 5.08807 130.143 6.46875C130.492 7.84091 130.492 9.22159 130.143 10.6108C129.802 12 129.107 13.2188 128.059 14.267L114.917 27.4091ZM140.322 0.818181L146.65 20.7102H146.893L153.234 0.818181H159.37L150.345 27H143.211L134.173 0.818181H140.322ZM162.522 27V0.818181H180.164V5.3821H168.057V11.6207H179.256V16.1847H168.057V22.4361H180.215V27H162.522ZM184.565 27V0.818181H194.894C196.871 0.818181 198.559 1.17187 199.957 1.87926C201.363 2.57812 202.433 3.57102 203.165 4.85795C203.907 6.13636 204.278 7.64062 204.278 9.37074C204.278 11.1094 203.903 12.6051 203.153 13.858C202.403 15.1023 201.316 16.0568 199.893 16.7216C198.478 17.3864 196.765 17.7188 194.754 17.7188H187.837V13.2699H193.859C194.915 13.2699 195.793 13.125 196.492 12.8352C197.191 12.5455 197.711 12.1108 198.052 11.5312C198.401 10.9517 198.576 10.2315 198.576 9.37074C198.576 8.50142 198.401 7.76847 198.052 7.17188C197.711 6.57528 197.187 6.12358 196.479 5.81676C195.781 5.50142 194.898 5.34375 193.833 5.34375H190.1V27H184.565ZM198.704 15.0852L205.211 27H199.1L192.734 15.0852H198.704ZM222.393 8.34801C222.29 7.31676 221.852 6.51562 221.076 5.9446C220.3 5.37358 219.248 5.08807 217.918 5.08807C217.015 5.08807 216.252 5.21591 215.63 5.47159C215.008 5.71875 214.531 6.06392 214.198 6.5071C213.874 6.95028 213.712 7.45312 213.712 8.01562C213.695 8.48438 213.793 8.89347 214.006 9.2429C214.228 9.59233 214.531 9.89489 214.914 10.1506C215.298 10.3977 215.741 10.6151 216.244 10.8026C216.746 10.9815 217.283 11.1349 217.854 11.2628L220.207 11.8253C221.349 12.081 222.397 12.4219 223.352 12.848C224.306 13.2741 225.133 13.7983 225.832 14.4205C226.531 15.0426 227.072 15.7756 227.455 16.6193C227.847 17.4631 228.048 18.4304 228.056 19.5213C228.048 21.1236 227.638 22.5128 226.829 23.6889C226.028 24.8565 224.869 25.7642 223.352 26.4119C221.843 27.0511 220.023 27.3707 217.893 27.3707C215.779 27.3707 213.938 27.0469 212.37 26.3991C210.81 25.7514 209.592 24.7926 208.714 23.5227C207.844 22.2443 207.388 20.6634 207.346 18.7798H212.702C212.762 19.6577 213.013 20.3906 213.457 20.9787C213.908 21.5582 214.509 21.9972 215.259 22.2955C216.018 22.5852 216.874 22.7301 217.829 22.7301C218.766 22.7301 219.58 22.5937 220.271 22.321C220.969 22.0483 221.511 21.669 221.894 21.1832C222.278 20.6974 222.469 20.1392 222.469 19.5085C222.469 18.9205 222.295 18.4261 221.945 18.0256C221.604 17.625 221.102 17.2841 220.437 17.0028C219.781 16.7216 218.975 16.4659 218.021 16.2358L215.17 15.5199C212.962 14.983 211.219 14.1435 209.941 13.0014C208.663 11.8594 208.028 10.321 208.036 8.38636C208.028 6.80114 208.45 5.41619 209.302 4.23153C210.163 3.04687 211.343 2.12216 212.843 1.45739C214.343 0.792613 216.048 0.460226 217.957 0.460226C219.9 0.460226 221.596 0.792613 223.045 1.45739C224.502 2.12216 225.636 3.04687 226.445 4.23153C227.255 5.41619 227.673 6.78835 227.698 8.34801H222.393Z" fill="#F25C5C"/>
</svg>
